<svg width="28" height="23" viewBox="0 0 28 23" fill="none" xmlns="http://www.w3.org/2000/svg">
<path fill-rule="evenodd" clip-rule="evenodd" d="M13.75 1.25C13.75 0.559644 14.3096 0 15 0H16.9481C18.5622 0 19.9952 1.03286 20.5057 2.56415L24.6906 15.1189C26.3064 15.5363 27.5 17.0038 27.5 18.75C27.5 20.8211 25.8211 22.5 23.75 22.5C21.6789 22.5 20 20.8211 20 18.75C20 17.2564 20.8732 15.9667 22.1369 15.3637L21.2684 12.7581L18.684 17.927C18.0488 19.1974 16.7503 19.9999 15.3299 19.9999H7.28664C6.77186 21.4565 5.3828 22.5 3.75 22.5C1.67893 22.5 0 20.8211 0 18.75C0 16.6789 1.67893 15 3.75 15C5.38275 15 6.77178 16.0435 7.28659 17.4999H15.3299C15.8034 17.4999 16.2362 17.2324 16.4479 16.8089L20.132 9.44092L20.1688 9.45935L18.134 3.35472C17.9638 2.84429 17.4861 2.5 16.9481 2.5H15C14.3096 2.5 13.75 1.94036 13.75 1.25ZM3.75 20.004C3.05744 20.004 2.49601 19.4426 2.49601 18.75C2.49601 18.0574 3.05744 17.496 3.75 17.496C4.44256 17.496 5.00399 18.0574 5.00399 18.75C5.00399 19.4426 4.44256 20.004 3.75 20.004ZM23.75 20.004C23.0574 20.004 22.496 19.4426 22.496 18.75C22.496 18.0574 23.0574 17.496 23.75 17.496C24.4426 17.496 25.004 18.0574 25.004 18.75C25.004 19.4426 24.4426 20.004 23.75 20.004Z" fill="white" fill-opacity="0.3"/>
</svg>
