<svg width="25" height="27" viewBox="0 0 25 27" fill="none" xmlns="http://www.w3.org/2000/svg">
<path fill-rule="evenodd" clip-rule="evenodd" d="M6.89737 2.40305e-07H17.4776C18.4937 -8.99841e-06 19.3132 -1.65217e-05 19.9768 0.0542048C20.6601 0.110032 21.2603 0.227982 21.8156 0.510907C22.6976 0.960314 23.4147 1.67741 23.8641 2.55942C24.147 3.11469 24.265 3.71487 24.3208 4.39817C24.3395 4.62745 24.3518 4.87535 24.3598 5.14353C24.3698 5.19834 24.375 5.25481 24.375 5.3125C24.375 5.35459 24.3722 5.39603 24.3668 5.43665C24.375 5.87202 24.375 6.35688 24.375 6.89735V16.2277C24.375 17.2437 24.375 18.0632 24.3208 18.7268C24.265 19.4101 24.147 20.0103 23.8641 20.5656C23.4248 21.4277 22.7298 22.1323 21.875 22.5833L21.875 24.9628C21.875 25.1155 21.8751 25.281 21.8634 25.4243C21.8501 25.5865 21.8173 25.8008 21.7047 26.0219C21.5549 26.3159 21.3159 26.5549 21.0219 26.7047C20.8008 26.8173 20.5865 26.8501 20.4243 26.8634C20.281 26.8751 20.1155 26.875 19.9628 26.875H17.5372C17.3845 26.875 17.219 26.8751 17.0757 26.8634C16.9135 26.8501 16.6992 26.8173 16.4781 26.7047C16.1841 26.5549 15.9451 26.3159 15.7953 26.0219C15.6827 25.8008 15.6499 25.5865 15.6366 25.4243C15.6249 25.281 15.625 25.1155 15.625 24.9628L15.625 23.125H8.75L8.75 24.9628C8.75004 25.1155 8.75008 25.281 8.73837 25.4243C8.72512 25.5865 8.69232 25.8008 8.5797 26.0219C8.4299 26.3159 8.19086 26.5549 7.89686 26.7047C7.67582 26.8173 7.46154 26.8501 7.29934 26.8634C7.15604 26.8751 6.99048 26.875 6.83779 26.875H4.41221C4.25952 26.875 4.09396 26.8751 3.95066 26.8634C3.78846 26.8501 3.57418 26.8173 3.35314 26.7047C3.05914 26.5549 2.82011 26.3159 2.6703 26.0219C2.55768 25.8008 2.52488 25.5865 2.51163 25.4243C2.49992 25.281 2.49996 25.1155 2.5 24.9628L2.5 22.5833C1.6452 22.1323 0.950179 21.4277 0.510907 20.5656C0.227982 20.0103 0.110032 19.4101 0.0542048 18.7268C-1.65217e-05 18.0632 -8.99826e-06 17.2437 2.40458e-07 16.2276V6.89737C-4.67692e-06 6.35689 -9.07283e-06 5.87203 0.00814901 5.43665C0.00277431 5.39603 5.38481e-07 5.35459 5.38481e-07 5.3125C5.38481e-07 5.25481 0.00521125 5.19834 0.0151877 5.14353C0.023211 4.87535 0.0354713 4.62745 0.0542048 4.39816C0.110032 3.71487 0.227982 3.11469 0.510907 2.55942C0.960314 1.67741 1.67741 0.960314 2.55942 0.510907C3.11469 0.227982 3.71487 0.110032 4.39817 0.0542048C5.0618 -1.65217e-05 5.88132 -8.99841e-06 6.89737 2.40305e-07ZM1.87568 6.25C1.87504 6.4633 1.875 6.69182 1.875 6.9375V12.5H22.5V6.9375C22.5 6.69182 22.5 6.4633 22.4993 6.25H1.87568ZM22.4356 4.375H1.93943C1.98849 3.91391 2.06935 3.63084 2.18154 3.41065C2.45119 2.88145 2.88145 2.45119 3.41065 2.18154C3.65755 2.05574 3.98351 1.96933 4.55085 1.92298C5.12914 1.87573 5.87193 1.875 6.9375 1.875H17.4375C18.5031 1.875 19.2459 1.87573 19.8241 1.92298C20.3915 1.96933 20.7174 2.05574 20.9643 2.18154C21.4936 2.45119 21.9238 2.88145 22.1935 3.41065C22.3056 3.63084 22.3865 3.91391 22.4356 4.375ZM22.5 14.375H1.875V16.1875C1.875 17.2531 1.87573 17.9959 1.92298 18.5741C1.96933 19.1415 2.05574 19.4675 2.18154 19.7143C2.45119 20.2436 2.88145 20.6738 3.41065 20.9435C3.65755 21.0693 3.98351 21.1557 4.55085 21.202C5.12914 21.2493 5.87193 21.25 6.9375 21.25H17.4375C18.5031 21.25 19.2459 21.2493 19.8241 21.202C20.3915 21.1557 20.7174 21.0693 20.9643 20.9435C21.4936 20.6738 21.9238 20.2436 22.1935 19.7143C22.3193 19.4675 22.4057 19.1415 22.452 18.5741C22.4993 17.9959 22.5 17.2531 22.5 16.1875V14.375ZM17.5 23.125V24.9375C17.5 24.9595 17.5 24.9803 17.5 25C17.5197 25 17.5405 25 17.5625 25H19.9375C19.9595 25 19.9803 25 20 25C20 24.9803 20 24.9595 20 24.9375V23.0689C19.9923 23.0695 19.9846 23.0702 19.9768 23.0708C19.3181 23.1246 18.5057 23.125 17.5 23.125ZM6.875 23.125C5.86928 23.125 5.05692 23.1246 4.39816 23.0708C4.39043 23.0702 4.38271 23.0695 4.375 23.0689V24.9375C4.375 24.9595 4.375 24.9803 4.37502 25C4.39468 25 4.41545 25 4.4375 25H6.8125C6.83455 25 6.85532 25 6.87498 25C6.875 24.9803 6.875 24.9595 6.875 24.9375V23.125ZM4.375 17.8125C4.375 17.2947 4.79473 16.875 5.3125 16.875H7.1875C7.70527 16.875 8.125 17.2947 8.125 17.8125C8.125 18.3303 7.70527 18.75 7.1875 18.75H5.3125C4.79473 18.75 4.375 18.3303 4.375 17.8125ZM16.25 17.8125C16.25 17.2947 16.6697 16.875 17.1875 16.875H19.0625C19.5803 16.875 20 17.2947 20 17.8125C20 18.3303 19.5803 18.75 19.0625 18.75H17.1875C16.6697 18.75 16.25 18.3303 16.25 17.8125Z" fill="white" fill-opacity="0.3"/>
</svg>
