<svg width="27" height="22" viewBox="0 0 27 22" fill="none" xmlns="http://www.w3.org/2000/svg">
<path fill-rule="evenodd" clip-rule="evenodd" d="M8.66255 9.39655e-05C8.71461 0.000142469 8.76733 0.000191568 8.82074 0.000191568H18.0547C18.1081 0.000191568 18.1608 0.000142469 18.2129 9.39655e-05C19.0933 -0.000726045 19.7835 -0.00136888 20.394 0.238711C20.9295 0.449339 21.4036 0.791047 21.7728 1.2325C22.1936 1.73569 22.4112 2.39069 22.6889 3.22622C22.7053 3.27562 22.7219 3.32565 22.7388 3.37632L23.9853 7.11575L25.5184 6.34917C25.9815 6.11761 26.5447 6.30532 26.7762 6.76843C27.0078 7.23153 26.8201 7.79466 26.357 8.02622L25.2063 8.60153C25.6832 9.00295 26.0781 9.49783 26.3643 10.0596C26.6472 10.6149 26.7652 11.2151 26.821 11.8984C26.8752 12.562 26.8752 13.3815 26.8752 14.3975V17.8127C26.8752 17.8437 26.8752 17.8742 26.8752 17.9043C26.8755 18.3952 26.8757 18.7739 26.8092 19.1083C26.5379 20.4719 25.4719 21.5379 24.1083 21.8091C23.7739 21.8757 23.3952 21.8755 22.9043 21.8752C22.8742 21.8752 22.8437 21.8752 22.8127 21.8752H22.1877C20.3946 21.8752 18.9221 20.5022 18.7642 18.7502H8.11119C7.95331 20.5022 6.48084 21.8752 4.6877 21.8752H4.0627C4.03173 21.8752 4.0012 21.8752 3.97109 21.8752C3.48019 21.8755 3.10146 21.8757 2.76708 21.8091C1.40346 21.5379 0.337498 20.4719 0.0662559 19.1083C-0.000256626 18.7739 -6.8499e-05 18.3952 0.000175284 17.9043C0.00019026 17.8742 0.000205384 17.8437 0.000205384 17.8127L0.000205086 14.3976C0.000195848 13.3815 0.000188323 12.562 0.0544096 11.8984C0.110237 11.2151 0.228186 10.6149 0.511112 10.0596C0.797354 9.49783 1.19219 9.00295 1.66907 8.60153L0.518443 8.02622C0.0553378 7.79466 -0.132373 7.23153 0.0991799 6.76843C0.330732 6.30532 0.893863 6.11761 1.35697 6.34917L2.89014 7.11575L4.13662 3.37632C4.15351 3.32565 4.17013 3.27561 4.18655 3.22621C4.46419 2.39069 4.68185 1.73569 5.10264 1.2325C5.47182 0.791048 5.94591 0.449339 6.48146 0.238711C7.09189 -0.00136888 7.7821 -0.000726045 8.66255 9.39655e-05ZM4.72769 7.53239C5.3282 7.50018 6.04345 7.50018 6.89758 7.50019H19.9778C20.832 7.50018 21.5472 7.50018 22.1477 7.53239L20.96 3.96924C20.6069 2.90983 20.4968 2.62954 20.3344 2.43533C20.1666 2.23467 19.9511 2.07935 19.7077 1.98361C19.4721 1.89095 19.1714 1.87519 18.0547 1.87519H8.82074C7.70403 1.87519 7.40332 1.89095 7.16772 1.98361C6.92429 2.07935 6.70879 2.23467 6.54099 2.43533C6.37857 2.62954 6.26854 2.90983 5.9154 3.96924L4.72769 7.53239ZM4.55105 9.42317C3.98371 9.46952 3.65775 9.55594 3.41086 9.68174C2.88165 9.95138 2.45139 10.3816 2.18175 10.9108C2.05595 11.1577 1.96954 11.4837 1.92318 12.051C1.87593 12.6293 1.87521 13.3721 1.87521 14.4377V17.8127C1.87521 18.4384 1.87975 18.6144 1.90523 18.7425C2.02852 19.3624 2.51305 19.8469 3.13288 19.9702C3.26098 19.9957 3.43695 20.0002 4.0627 20.0002H4.6877C5.55065 20.0002 6.25021 19.3006 6.25021 18.4377C6.25021 17.5747 6.94976 16.8752 7.8127 16.8752H19.0627C19.9256 16.8752 20.6252 17.5747 20.6252 18.4377C20.6252 19.3006 21.3248 20.0002 22.1877 20.0002H22.8127C23.4385 20.0002 23.6144 19.9957 23.7425 19.9702C24.3624 19.8469 24.8469 19.3624 24.9702 18.7425C24.9957 18.6144 25.0002 18.4384 25.0002 17.8127V14.4377C25.0002 13.3721 24.9995 12.6293 24.9522 12.051C24.9059 11.4837 24.8195 11.1577 24.6937 10.9108C24.424 10.3816 23.9938 9.95138 23.4646 9.68174C23.2177 9.55594 22.8917 9.46952 22.3244 9.42317C21.7461 9.37592 21.0033 9.37519 19.9377 9.37519H6.93771C5.87214 9.37519 5.12934 9.37592 4.55105 9.42317ZM3.7502 12.1877C3.7502 11.6699 4.16994 11.2502 4.6877 11.2502H8.4377C8.95547 11.2502 9.3752 11.6699 9.3752 12.1877C9.3752 12.7055 8.95547 13.1252 8.4377 13.1252H4.6877C4.16994 13.1252 3.7502 12.7055 3.7502 12.1877ZM17.5002 12.1877C17.5002 11.6699 17.9199 11.2502 18.4377 11.2502H22.1877C22.7055 11.2502 23.1252 11.6699 23.1252 12.1877C23.1252 12.7055 22.7055 13.1252 22.1877 13.1252H18.4377C17.9199 13.1252 17.5002 12.7055 17.5002 12.1877Z" fill="white" fill-opacity="0.3"/>
</svg>
