<svg width="27" height="20" viewBox="0 0 27 20" fill="none" xmlns="http://www.w3.org/2000/svg">
<path fill-rule="evenodd" clip-rule="evenodd" d="M4.89946 5.06734e-07L21.9755 2.07136e-06C22.6432 -1.11907e-05 23.2005 -2.21422e-05 23.6558 0.0371767C24.1307 0.075974 24.5765 0.159863 24.9981 0.374668C25.6449 0.704232 26.1708 1.2301 26.5003 1.87691C26.7151 2.29849 26.799 2.74431 26.8378 3.21917C26.875 3.67445 26.875 4.23175 26.875 4.89943V14.4756C26.875 15.1432 26.875 15.7006 26.8378 16.1558C26.799 16.6307 26.7151 17.0765 26.5003 17.4981C26.1708 18.1449 25.6449 18.6708 24.9981 19.0003C24.5765 19.2151 24.1307 19.299 23.6558 19.3378C23.2006 19.375 22.6432 19.375 21.9756 19.375L4.89943 19.375C4.23175 19.375 3.67445 19.375 3.21916 19.3378C2.74431 19.299 2.29849 19.2151 1.87691 19.0003C1.2301 18.6708 0.704231 18.1449 0.374666 17.4981C0.159861 17.0765 0.0759721 16.6307 0.0371749 16.1558C-2.38605e-05 15.7005 -1.2834e-05 15.1432 5.02511e-07 14.4755L7.26028e-07 4.89946C-1.26105e-05 4.23176 -2.3637e-05 3.67445 0.0371752 3.21916C0.0759725 2.74431 0.159861 2.29849 0.374666 1.87691C0.704231 1.2301 1.2301 0.70423 1.87691 0.374666C2.29849 0.159861 2.74431 0.0759721 3.21916 0.0371748C3.67446 -2.40048e-05 4.23177 -1.29043e-05 4.89946 5.06734e-07ZM3.37185 1.90595C3.01294 1.93527 2.84134 1.98762 2.72814 2.0453C2.43414 2.19511 2.19511 2.43414 2.0453 2.72814C1.98762 2.84134 1.93527 3.01294 1.90595 3.37185C1.87573 3.7417 1.875 4.22196 1.875 4.9375L1.875 14.4375C1.875 15.153 1.87573 15.6333 1.90595 16.0031C1.93527 16.3621 1.98762 16.5337 2.0453 16.6469C2.19511 16.9409 2.43414 17.1799 2.72814 17.3297C2.84134 17.3874 3.01294 17.4397 3.37185 17.4691C3.7417 17.4993 4.22196 17.5 4.9375 17.5L21.9375 17.5C22.653 17.5 23.1333 17.4993 23.5032 17.4691C23.8621 17.4397 24.0337 17.3874 24.1469 17.3297C24.4409 17.1799 24.6799 16.9409 24.8297 16.6469C24.8874 16.5337 24.9397 16.3621 24.9691 16.0032C24.9993 15.6333 25 15.153 25 14.4375V4.9375C25 4.22197 24.9993 3.7417 24.9691 3.37185C24.9397 3.01294 24.8874 2.84134 24.8297 2.72814C24.6799 2.43414 24.4409 2.19511 24.1469 2.0453C24.0337 1.98763 23.8621 1.93527 23.5032 1.90595C23.1333 1.87573 22.653 1.875 21.9375 1.875L4.9375 1.875C4.22197 1.875 3.7417 1.87573 3.37185 1.90595ZM13.4375 3.75C13.9553 3.75 14.375 4.16973 14.375 4.6875V5H15.9375C16.4553 5 16.875 5.41973 16.875 5.9375C16.875 6.45527 16.4553 6.875 15.9375 6.875H12.8125C12.2947 6.875 11.875 7.29473 11.875 7.8125C11.875 8.33027 12.2947 8.75 12.8125 8.75H14.0625C15.6158 8.75 16.875 10.0092 16.875 11.5625C16.875 13.0102 15.7812 14.2024 14.375 14.3578V14.6875C14.375 15.2053 13.9553 15.625 13.4375 15.625C12.9197 15.625 12.5 15.2053 12.5 14.6875V14.375H10.9375C10.4197 14.375 10 13.9553 10 13.4375C10 12.9197 10.4197 12.5 10.9375 12.5H14.0625C14.5803 12.5 15 12.0803 15 11.5625C15 11.0447 14.5803 10.625 14.0625 10.625H12.8125C11.2592 10.625 10 9.3658 10 7.8125C10 6.36483 11.0938 5.17262 12.5 5.01717V4.6875C12.5 4.16973 12.9197 3.75 13.4375 3.75ZM4.375 9.6875C4.375 8.82456 5.07456 8.125 5.9375 8.125C6.80045 8.125 7.5 8.82456 7.5 9.6875C7.5 10.5504 6.80045 11.25 5.9375 11.25C5.07456 11.25 4.375 10.5504 4.375 9.6875ZM19.375 9.6875C19.375 8.82456 20.0746 8.125 20.9375 8.125C21.8004 8.125 22.5 8.82456 22.5 9.6875C22.5 10.5504 21.8004 11.25 20.9375 11.25C20.0746 11.25 19.375 10.5504 19.375 9.6875Z" fill="white" fill-opacity="0.3"/>
</svg>
