<svg width="28" height="27" viewBox="0 0 28 27" fill="none" xmlns="http://www.w3.org/2000/svg">
<path fill-rule="evenodd" clip-rule="evenodd" d="M0.887241 0.0340396C1.21274 -0.0561191 1.56158 0.0357802 1.80041 0.274609L26.8004 25.2746C27.1665 25.6407 27.1665 26.2343 26.8004 26.6004C26.4343 26.9666 25.8407 26.9666 25.4746 26.6004L16.1375 17.2633L14.5593 18.8415C13.7058 19.695 12.3216 19.6975 11.4666 18.8424L2.97468 10.3505C0.902997 8.27883 0.217647 5.86155 0.0476038 3.99115C-0.0373481 3.05672 0.0049837 2.2501 0.0690105 1.67384C0.10579 1.34281 0.151304 1.02039 0.227555 0.71187C0.308228 0.387755 0.565719 0.123097 0.887241 0.0340396ZM14.8117 15.9375L1.83674 2.9626L1.91499 3.82232C2.05762 5.38951 2.62256 7.34673 4.30044 9.02461L13.0125 17.7367L14.8117 15.9375Z" fill="white" fill-opacity="0.3"/>
<path d="M19.8496 0.899609C20.2157 0.533493 20.8093 0.533493 21.1754 0.899609C21.5415 1.26573 21.5415 1.85932 21.1754 2.22543L17.5556 5.84521C16.9883 6.41256 17.0001 7.21961 17.3677 7.83236L17.5736 8.17557L22.3496 3.39961C22.7157 3.03349 23.3093 3.03349 23.6754 3.39961C24.0415 3.76573 24.0415 4.35932 23.6754 4.72543L18.8995 9.50139L19.2427 9.70731C19.8554 10.075 20.6625 10.0867 21.2298 9.51938L24.8496 5.89961C25.2157 5.53349 25.8093 5.53349 26.1754 5.89961C26.5415 6.26573 26.5415 6.85932 26.1754 7.22543L22.5556 10.8452C21.4403 11.9606 19.709 12.1737 18.3564 11.3622L17.5328 10.868L16.8004 11.6004C16.4343 11.9666 15.8407 11.9666 15.4746 11.6004C15.1085 11.2343 15.1085 10.6407 15.4746 10.2746L16.207 9.5422L15.7129 8.71864C14.9013 7.36606 15.1145 5.63474 16.2298 4.51938L19.8496 0.899609Z" fill="white" fill-opacity="0.3"/>
<path d="M7.3496 18.3996C7.71571 18.0335 8.3093 18.0335 8.67542 18.3996C9.04154 18.7657 9.04154 19.3593 8.67542 19.7254L1.80042 26.6004C1.4343 26.9666 0.840712 26.9666 0.474595 26.6004C0.108479 26.2343 0.108479 25.6407 0.474595 25.2746L7.3496 18.3996Z" fill="white" fill-opacity="0.3"/>
</svg>
