<svg width="27" height="27" viewBox="0 0 27 27" fill="none" xmlns="http://www.w3.org/2000/svg">
<path fill-rule="evenodd" clip-rule="evenodd" d="M13.4375 1.875C7.05171 1.875 1.875 7.05171 1.875 13.4375C1.875 19.8233 7.05171 25 13.4375 25C19.8233 25 25 19.8233 25 13.4375C25 7.05171 19.8233 1.875 13.4375 1.875ZM0 13.4375C0 6.01617 6.01617 0 13.4375 0C20.8588 0 26.875 6.01617 26.875 13.4375C26.875 20.8588 20.8588 26.875 13.4375 26.875C6.01617 26.875 0 20.8588 0 13.4375ZM8.125 9.6875C8.125 8.82455 8.82455 8.125 9.6875 8.125C10.5504 8.125 11.25 8.82455 11.25 9.6875C11.25 10.5504 10.5504 11.25 9.6875 11.25C8.82455 11.25 8.125 10.5504 8.125 9.6875ZM15.625 9.6875C15.625 8.82455 16.3246 8.125 17.1875 8.125C18.0504 8.125 18.75 8.82455 18.75 9.6875C18.75 10.5504 18.0504 11.25 17.1875 11.25C16.3246 11.25 15.625 10.5504 15.625 9.6875ZM8.4375 15.9375C7.6875 16.5 7.68773 16.5003 7.68796 16.5006L7.68961 16.5028L7.69244 16.5065L7.70022 16.5167L7.72428 16.5475C7.74406 16.5725 7.77138 16.6063 7.80607 16.6476C7.87539 16.7302 7.97456 16.8434 8.10243 16.9768C8.35741 17.2428 8.73095 17.5942 9.21421 17.9457C10.1771 18.646 11.6167 19.375 13.4375 19.375C15.2583 19.375 16.6979 18.646 17.6608 17.9457C18.144 17.5942 18.5176 17.2428 18.7726 16.9768C18.9004 16.8434 18.9996 16.7302 19.0689 16.6476C19.1036 16.6063 19.1309 16.5725 19.1507 16.5475L19.1748 16.5167L19.1826 16.5065L19.1854 16.5028L19.1865 16.5013C19.1868 16.501 19.1875 16.5 18.4375 15.9375L19.1875 16.5C19.4982 16.0858 19.4142 15.4982 19 15.1875C18.586 14.877 17.9987 14.9607 17.6879 15.3744L17.6889 15.3731L17.6806 15.3837C17.6714 15.3953 17.6554 15.4152 17.6327 15.4422C17.5873 15.4964 17.5156 15.5785 17.4188 15.6795C17.2246 15.8822 16.9341 16.1558 16.558 16.4293C15.8021 16.979 14.7417 17.5 13.4375 17.5C12.1333 17.5 11.0729 16.979 10.317 16.4293C9.94092 16.1558 9.65041 15.8822 9.45616 15.6795C9.35942 15.5785 9.28769 15.4964 9.24227 15.4422C9.21959 15.4152 9.20357 15.3953 9.19436 15.3837L9.18607 15.3731C8.87512 14.9602 8.28872 14.8772 7.875 15.1875C7.46079 15.4982 7.3773 16.0864 7.68796 16.5006L8.4375 15.9375Z" fill="white" fill-opacity="0.3"/>
</svg>
