<svg width="30" height="30" viewBox="0 0 30 30" fill="none" xmlns="http://www.w3.org/2000/svg">
<path fill-rule="evenodd" clip-rule="evenodd" d="M14.9912 5.06688C12.1655 2.4368 7.88514 1.85464 4.58448 4.6748C1.07654 7.67206 0.57039 12.7118 3.3401 16.2758C4.31764 17.5337 6.15042 19.3758 8.00567 21.145C9.87649 22.9291 11.8219 24.6875 13.0609 25.7931L13.0837 25.8134C13.2912 25.9987 13.4858 26.1724 13.6629 26.3067C13.8576 26.4543 14.0824 26.5952 14.363 26.6794C14.7696 26.8013 15.2135 26.8013 15.6201 26.6794C15.9007 26.5952 16.1255 26.4543 16.3201 26.3067C16.4973 26.1724 16.6919 25.9987 16.8994 25.8134L16.9222 25.7931C18.1611 24.6875 20.1066 22.9291 21.9774 21.145C23.8327 19.3758 25.6655 17.5337 26.643 16.2758C29.4044 12.7224 28.9729 7.64543 25.3889 4.66657C22.0472 1.88915 17.8144 2.43567 14.9912 5.06688ZM14.2791 7.0292C12.0558 4.42997 8.47305 3.81852 5.80247 6.10032C3.04779 8.45398 2.67225 12.3608 4.82061 15.1253C5.70044 16.2574 7.43459 18.0095 9.29966 19.7881C11.1492 21.5518 13.0774 23.2948 14.3093 24.3942C14.5475 24.6067 14.6857 24.7291 14.7958 24.8126C14.8626 24.8632 14.8942 24.8798 14.9032 24.8839C14.9576 24.8998 15.0255 24.8998 15.0799 24.8839C15.0889 24.8798 15.1205 24.8632 15.1873 24.8126C15.2974 24.7291 15.4356 24.6067 15.6738 24.3942C16.9057 23.2948 18.8339 21.5518 20.6834 19.7881C22.5485 18.0095 24.2827 16.2574 25.1625 15.1253C27.3191 12.3501 26.9766 8.42432 24.1904 6.10854C21.4563 3.83615 17.9202 4.43823 15.704 7.0292C15.5259 7.23743 15.2656 7.35731 14.9915 7.35731C14.7175 7.35731 14.4572 7.23743 14.2791 7.0292ZM15.0772 24.8849C15.0773 24.8848 15.0782 24.8845 15.0797 24.8839C15.0778 24.8848 15.077 24.8851 15.0772 24.8849ZM14.9059 24.885C14.9058 24.885 14.905 24.8847 14.9034 24.8839C14.9051 24.8845 14.906 24.8849 14.9059 24.885ZM13.8166 9.6899C14.1948 9.71678 14.5196 9.96885 14.6395 10.3286L16.4238 15.6814L17.2866 13.9558C17.4454 13.6382 17.77 13.4375 18.1251 13.4375H19.3751C19.8929 13.4375 20.3126 13.8573 20.3126 14.375C20.3126 14.8928 19.8929 15.3125 19.3751 15.3125H18.7045L17.0886 18.5443C16.9191 18.8835 16.5619 19.0871 16.1836 19.0602C15.8054 19.0333 15.4806 18.7812 15.3607 18.4215L13.5764 13.0687L12.7136 14.7943C12.5548 15.1119 12.2302 15.3125 11.8751 15.3125H10.6251C10.1073 15.3125 9.68761 14.8928 9.68761 14.375C9.68761 13.8573 10.1073 13.4375 10.6251 13.4375H11.2957L12.9116 10.2058C13.0812 9.86662 13.4383 9.66302 13.8166 9.6899Z" fill="white" fill-opacity="0.3"/>
</svg>
