<svg width="25" height="28" viewBox="0 0 25 28" fill="none" xmlns="http://www.w3.org/2000/svg">
<path d="M23.676 11.1761H1.17603M17.426 1.17615V6.17615M7.42602 1.17615V6.17615M7.17602 26.1761H17.676C19.7762 26.1761 20.8263 26.1761 21.6285 25.7674C22.3341 25.4079 22.9078 24.8342 23.2673 24.1286C23.676 23.3264 23.676 22.2763 23.676 20.1761V9.67615C23.676 7.57595 23.676 6.52585 23.2673 5.72368C22.9078 5.01807 22.3341 4.4444 21.6285 4.08487C20.8263 3.67615 19.7762 3.67615 17.676 3.67615H7.17603C5.07583 3.67615 4.02573 3.67615 3.22356 4.08487C2.51795 4.4444 1.94428 5.01807 1.58475 5.72368C1.17603 6.52585 1.17603 7.57595 1.17603 9.67615V20.1761C1.17603 22.2763 1.17603 23.3264 1.58475 24.1286C1.94428 24.8342 2.51795 25.4079 3.22356 25.7674C4.02573 26.1761 5.07583 26.1761 7.17602 26.1761Z" stroke="white" stroke-opacity="0.3" stroke-width="2.35227" stroke-linecap="round" stroke-linejoin="round"/>
</svg>
