<svg width="27" height="25" viewBox="0 0 27 25" fill="none" xmlns="http://www.w3.org/2000/svg">
<path fill-rule="evenodd" clip-rule="evenodd" d="M13.2928 3.02137e-05C13.3403 4.58599e-05 13.3885 6.17297e-05 13.4375 6.17297e-05C13.4865 6.17297e-05 13.5347 4.58599e-05 13.5822 3.02137e-05C14.6047 -0.000306702 15.3024 -0.000536554 15.9007 0.159784C17.5183 0.593224 18.7818 1.85673 19.2153 3.47435C19.3304 3.9039 19.3627 4.38467 19.3717 5.00006H19.9776C20.9937 5.00005 21.8132 5.00004 22.4768 5.05427C23.1601 5.11009 23.7603 5.22804 24.3156 5.51097C25.1976 5.96037 25.9147 6.67747 26.3641 7.55948C26.647 8.11475 26.765 8.71493 26.8208 9.39823C26.875 10.0619 26.875 10.8814 26.875 11.8974V17.4777C26.875 18.4938 26.875 19.3133 26.8208 19.9769C26.765 20.6602 26.647 21.2604 26.3641 21.8156C25.9147 22.6976 25.1976 23.4147 24.3156 23.8642C23.7603 24.1471 23.1601 24.265 22.4768 24.3209C21.8132 24.3751 20.9937 24.3751 19.9777 24.3751H6.89735C5.88131 24.3751 5.0618 24.3751 4.39817 24.3209C3.71487 24.265 3.11469 24.1471 2.55942 23.8642C1.67741 23.4147 0.960314 22.6976 0.510907 21.8156C0.227982 21.2604 0.110032 20.6602 0.0542048 19.9769C-1.65217e-05 19.3133 -8.99841e-06 18.4937 2.40305e-07 17.4777V11.8974C-8.99841e-06 10.8814 -1.65217e-05 10.0619 0.0542048 9.39823C0.110032 8.71493 0.227982 8.11475 0.510907 7.55948C0.960314 6.67747 1.67741 5.96038 2.55942 5.51097C3.11469 5.22804 3.71487 5.11009 4.39817 5.05427C5.0618 5.00004 5.88132 5.00005 6.89738 5.00006H7.50331C7.51228 4.38467 7.54462 3.9039 7.65972 3.47435C8.09316 1.85673 9.35667 0.593224 10.9743 0.159784C11.5726 -0.000536628 12.2703 -0.000306702 13.2928 3.02137e-05ZM7.5 6.87506H6.9375C5.87193 6.87506 5.12914 6.87579 4.55085 6.92304C3.98351 6.96939 3.65755 7.05581 3.41065 7.18161C2.88145 7.45125 2.45119 7.88151 2.18154 8.41071C2.05574 8.65761 1.96933 8.98357 1.92298 9.55091C1.87573 10.1292 1.875 10.872 1.875 11.9376V17.4376C1.875 18.5031 1.87573 19.2459 1.92298 19.8242C1.96933 20.3916 2.05574 20.7175 2.18154 20.9644C2.45119 21.4936 2.88145 21.9239 3.41065 22.1935C3.65755 22.3193 3.98351 22.4057 4.55085 22.4521C5.12914 22.4993 5.87193 22.5001 6.9375 22.5001H7.5V6.87506ZM9.375 22.5001V6.87506H17.5V13.1251L14.4122 13.1251C14.2595 13.125 14.094 13.125 13.9507 13.1367C13.7885 13.1499 13.5742 13.1827 13.3531 13.2954C13.0591 13.4452 12.8201 13.6842 12.6703 13.9782C12.5577 14.1992 12.5249 14.4135 12.5116 14.5757C12.4999 14.719 12.5 14.8846 12.5 15.0373V18.0878C12.5 18.2405 12.4999 18.4061 12.5116 18.5494C12.5249 18.7116 12.5577 18.9259 12.6703 19.1469C12.8201 19.4409 13.0591 19.68 13.3531 19.8298C13.5742 19.9424 13.7885 19.9752 13.9507 19.9884C14.094 20.0001 14.2595 20.0001 14.4122 20.0001L17.5 20.0001V22.5001H9.375ZM19.375 22.5001H19.9375C21.0031 22.5001 21.7459 22.4993 22.3241 22.4521C22.8915 22.4057 23.2174 22.3193 23.4643 22.1935C23.9936 21.9239 24.4238 21.4936 24.6935 20.9644C24.8193 20.7175 24.9057 20.3916 24.952 19.8242C24.9993 19.2459 25 18.5031 25 17.4376V11.9376C25 10.872 24.9993 10.1292 24.952 9.55091C24.9057 8.98357 24.8193 8.65761 24.6935 8.41071C24.4238 7.88151 23.9936 7.45125 23.4643 7.18161C23.2174 7.05581 22.8915 6.96939 22.3241 6.92304C21.7459 6.87579 21.0031 6.87506 19.9375 6.87506H19.375V13.1251L20.5878 13.1251C20.7405 13.125 20.906 13.125 21.0493 13.1367C21.2115 13.1499 21.4258 13.1827 21.6469 13.2954C21.9409 13.4452 22.1799 13.6842 22.3297 13.9782C22.4423 14.1992 22.4751 14.4135 22.4884 14.5757C22.5001 14.719 22.5 14.8846 22.5 15.0373V18.0878C22.5 18.2405 22.5001 18.4061 22.4884 18.5494C22.4751 18.7116 22.4423 18.9259 22.3297 19.1469C22.1799 19.4409 21.9409 19.68 21.6469 19.8298C21.4258 19.9424 21.2115 19.9752 21.0493 19.9884C20.906 20.0001 20.7405 20.0001 20.5878 20.0001L19.375 20.0001V22.5001ZM20.5625 18.1251C20.5845 18.1251 20.6053 18.1251 20.625 18.125C20.625 18.1054 20.625 18.0846 20.625 18.0626V15.0626C20.625 15.0405 20.625 15.0197 20.625 15.0001C20.6053 15.0001 20.5845 15.0001 20.5625 15.0001H14.4375C14.4155 15.0001 14.3947 15.0001 14.375 15.0001C14.375 15.0197 14.375 15.0405 14.375 15.0626V18.0626C14.375 18.0846 14.375 18.1054 14.375 18.125C14.3947 18.1251 14.4155 18.1251 14.4375 18.1251H20.5625ZM17.4954 5.00006H9.37959C9.3879 4.45634 9.41059 4.18446 9.47083 3.95963C9.7309 2.98906 10.489 2.23096 11.4596 1.9709C11.7872 1.88311 12.2147 1.87506 13.4375 1.87506C14.6603 1.87506 15.0878 1.88311 15.4154 1.9709C16.386 2.23096 17.1441 2.98906 17.4042 3.95963C17.4644 4.18446 17.4871 4.45635 17.4954 5.00006Z" fill="white" fill-opacity="0.3"/>
</svg>
