<svg width="25" height="25" viewBox="0 0 25 25" fill="none" xmlns="http://www.w3.org/2000/svg">
<path fill-rule="evenodd" clip-rule="evenodd" d="M12.2148 1.87619C12.1966 1.8746 12.1784 1.8746 12.1602 1.87619C12.1628 1.87597 12.1566 1.87614 12.1255 1.8822C12.0895 1.88923 12.0424 1.89961 11.957 1.9186L2.70701 3.97415C2.4143 4.0392 2.24396 4.07765 2.11875 4.11529C2.04211 4.13832 2.01119 4.15307 2.0031 4.15743C1.95851 4.19002 1.92336 4.23384 1.90122 4.28444C1.89872 4.29328 1.89103 4.32666 1.88516 4.40648C1.87559 4.53687 1.875 4.7115 1.875 5.01135L1.875 6.40701C1.875 6.77251 1.87573 6.99025 1.88892 7.15166C1.89697 7.25017 1.90759 7.29158 1.91103 7.30268C1.94043 7.35848 1.98603 7.40408 2.04183 7.43348C2.05293 7.43692 2.09434 7.44754 2.19285 7.45559C2.35426 7.46878 2.572 7.46951 2.9375 7.46951H21.4375C21.803 7.46951 22.0207 7.46878 22.1822 7.45559C22.2807 7.44754 22.3221 7.43692 22.3332 7.43348C22.389 7.40408 22.4346 7.35848 22.464 7.30268C22.4674 7.29159 22.478 7.25018 22.4861 7.15166C22.4993 6.99025 22.5 6.77251 22.5 6.40701V5.01135C22.5 4.7115 22.4994 4.53687 22.4898 4.40648C22.484 4.32666 22.4763 4.29329 22.4738 4.28444C22.4516 4.23384 22.4165 4.19002 22.3719 4.15743C22.3638 4.15307 22.3329 4.13832 22.2563 4.11529C22.131 4.07765 21.9607 4.0392 21.668 3.97415L12.418 1.9186C12.3326 1.89961 12.2855 1.88923 12.2495 1.8822C12.2184 1.87614 12.2122 1.87597 12.2148 1.87619ZM22.3742 4.15878C22.3741 4.15877 22.373 4.15817 22.3719 4.15743ZM22.473 4.2819C22.473 4.28185 22.4734 4.28296 22.4738 4.28444ZM22.3364 7.43235C22.3364 7.43236 22.3359 7.4326 22.3345 7.43303ZM21.875 9.34285C22.041 9.3407 22.1956 9.33574 22.3348 9.32436C22.6013 9.30259 22.8927 9.25277 23.1806 9.10608C23.5922 8.89636 23.9269 8.56172 24.1366 8.15011C24.2833 7.86223 24.3331 7.57076 24.3549 7.30435C24.375 7.05724 24.375 6.76165 24.375 6.4398V4.98317C24.375 4.7212 24.375 4.47661 24.3598 4.26914C24.3432 4.04245 24.3052 3.79732 24.1975 3.54652C24.0409 3.18193 23.7881 2.86679 23.4662 2.63485C23.2447 2.47531 23.0137 2.38507 22.796 2.31965C22.5968 2.25977 22.358 2.20673 22.1023 2.14993L12.8247 0.0882459C12.8143 0.085923 12.8038 0.0835755 12.7932 0.0812142C12.6632 0.0521918 12.5239 0.0211085 12.3786 0.00836246C12.2514 -0.00278749 12.1236 -0.00278749 11.9964 0.00836246C11.8511 0.0211084 11.7118 0.0521917 11.5818 0.0812136C11.5712 0.0835749 11.5607 0.0859227 11.5503 0.0882458L2.30027 2.1438C2.29107 2.14585 2.28189 2.14788 2.27274 2.14992C2.01701 2.20673 1.77825 2.25977 1.57903 2.31964C1.36135 2.38507 1.13029 2.47531 0.908832 2.63485C0.586888 2.86679 0.334093 3.18193 0.177517 3.54652C0.0698128 3.79732 0.0318503 4.04245 0.0152011 4.26914C-3.59211e-05 4.4766 -1.7742e-05 4.72118 1.77856e-06 4.98314L1.55505e-06 6.43978C-2.15418e-05 6.76164 -4.27011e-05 7.05724 0.0201467 7.30435C0.0419138 7.57076 0.0917422 7.86223 0.238426 8.15011C0.448149 8.56171 0.782794 8.89636 1.1944 9.10608C1.48228 9.25277 1.77375 9.30259 2.04016 9.32436C2.17938 9.33574 2.33398 9.3407 2.5 9.34285V17.4712C2.33398 17.4733 2.17938 17.4783 2.04016 17.4896C1.77375 17.5114 1.48228 17.5612 1.1944 17.7079C0.782795 17.9177 0.44815 18.2523 0.238426 18.6639C0.0917425 18.9518 0.041914 19.2432 0.020147 19.5097C-4.26266e-05 19.7568 -2.14672e-05 20.0524 1.62955e-06 20.3742L1.55505e-06 21.4398C-2.15418e-05 21.7616 -4.27011e-05 22.0572 0.0201467 22.3043C0.0419138 22.5708 0.0917421 22.8622 0.238426 23.1501C0.44815 23.5617 0.782795 23.8964 1.1944 24.1061C1.48228 24.2528 1.77375 24.3026 2.04016 24.3244C2.28727 24.3445 2.58286 24.3445 2.90471 24.3445H21.4703C21.7921 24.3445 22.0877 24.3445 22.3348 24.3244C22.6013 24.3026 22.8927 24.2528 23.1806 24.1061C23.5922 23.8964 23.9269 23.5617 24.1366 23.1501C24.2833 22.8622 24.3331 22.5708 24.3549 22.3043C24.375 22.0572 24.375 21.7616 24.375 21.4398V20.3742C24.375 20.0524 24.375 19.7568 24.3549 19.5097C24.3331 19.2433 24.2833 18.9518 24.1366 18.6639C23.9269 18.2523 23.5922 17.9177 23.1806 17.7079C22.8927 17.5612 22.6013 17.5114 22.3348 17.4896C22.1956 17.4783 22.041 17.4733 21.875 17.4712V9.34285ZM20 9.34451H16.25V17.4695H20V9.34451ZM2.9375 19.3445C2.572 19.3445 2.35426 19.3452 2.19285 19.3584C2.09434 19.3665 2.05293 19.3771 2.04183 19.3805C1.98603 19.4099 1.94043 19.4555 1.91103 19.5113C1.90759 19.5224 1.89697 19.5638 1.88892 19.6623C1.87573 19.8238 1.875 20.0415 1.875 20.407L1.875 21.407C1.875 21.7725 1.87573 21.9902 1.88892 22.1517C1.89697 22.2502 1.90759 22.2916 1.91103 22.3027C1.94043 22.3585 1.98603 22.4041 2.04183 22.4335C2.05293 22.4369 2.09433 22.4475 2.19285 22.4556C2.35426 22.4688 2.572 22.4695 2.9375 22.4695H21.4375C21.803 22.4695 22.0208 22.4688 22.1822 22.4556C22.2807 22.4475 22.3221 22.4369 22.3332 22.4335C22.389 22.4041 22.4346 22.3585 22.464 22.3027C22.4674 22.2916 22.478 22.2502 22.4861 22.1517C22.4993 21.9903 22.5 21.7725 22.5 21.407V20.407C22.5 20.0415 22.4993 19.8238 22.4861 19.6624C22.478 19.5639 22.4674 19.5224 22.464 19.5113C22.4346 19.4555 22.389 19.4099 22.3332 19.3805C22.3221 19.3771 22.2807 19.3665 22.1822 19.3584C22.0207 19.3452 21.803 19.3445 21.4375 19.3445H2.9375ZM22.4628 19.5081C22.4629 19.5081 22.4631 19.5086 22.4635 19.51ZM22.4628 22.3059C22.4628 22.3059 22.463 22.3053 22.4635 22.304ZM2.0386 22.4323C2.03864 22.4323 2.03929 22.4326 2.04044 22.433ZM1.91148 22.3041C1.91196 22.3052 1.91217 22.3059 1.91216 22.3059ZM1.91147 19.51C1.91191 19.5086 1.91215 19.5081 1.91216 19.5081ZM2.04046 19.381C2.03929 19.3815 2.03863 19.3817 2.0386 19.3817ZM4.375 17.4695H8.125V9.34451H4.375V17.4695ZM10 9.34451V17.4695H14.375V9.34451H10ZM2.04046 7.43304C2.03914 7.4326 2.03856 7.43236 2.0386 7.43235ZM1.91216 7.30591C1.91215 7.30595 1.91191 7.30536 1.91148 7.30406ZM1.90203 4.2819C1.90205 4.28195 1.9017 4.28315 1.90122 4.28444ZM2.0008 4.15878C2.00075 4.15877 2.00175 4.15816 2.0031 4.15743Z" fill="white" fill-opacity="0.3"/>
</svg>
