<svg width="22" height="27" viewBox="0 0 22 27" fill="none" xmlns="http://www.w3.org/2000/svg">
<path fill-rule="evenodd" clip-rule="evenodd" d="M6.89737 2.40305e-07H14.9776C15.9937 -8.99841e-06 16.8132 -1.65217e-05 17.4768 0.0542048C18.1601 0.110032 18.7603 0.227982 19.3156 0.510907C20.1976 0.960314 20.9147 1.67741 21.3641 2.55942C21.647 3.11469 21.765 3.71487 21.8208 4.39817C21.875 5.0618 21.875 5.88131 21.875 6.89735V19.9777C21.875 20.9937 21.875 21.8132 21.8208 22.4768C21.765 23.1601 21.647 23.7603 21.3641 24.3156C20.9147 25.1976 20.1976 25.9147 19.3156 26.3641C18.7603 26.647 18.1601 26.765 17.4768 26.8208C16.8132 26.875 15.9937 26.875 14.9777 26.875H6.89735C5.88131 26.875 5.0618 26.875 4.39817 26.8208C3.71487 26.765 3.11469 26.647 2.55942 26.3641C1.67741 25.9147 0.960314 25.1976 0.510907 24.3156C0.227982 23.7603 0.110032 23.1601 0.0542048 22.4768C-1.65217e-05 21.8132 -8.99841e-06 20.9937 2.40305e-07 19.9776V6.89737C-8.99841e-06 5.88132 -1.65217e-05 5.0618 0.0542048 4.39817C0.110032 3.71487 0.227982 3.11469 0.510907 2.55942C0.960314 1.67741 1.67741 0.960314 2.55942 0.510907C3.11469 0.227982 3.71487 0.110032 4.39817 0.0542048C5.0618 -1.65217e-05 5.88132 -8.99841e-06 6.89737 2.40305e-07ZM4.55085 1.92298C3.98351 1.96933 3.65755 2.05574 3.41065 2.18154C2.88145 2.45119 2.45119 2.88145 2.18154 3.41065C2.05574 3.65755 1.96933 3.98351 1.92298 4.55085C1.87573 5.12914 1.875 5.87193 1.875 6.9375V19.9375C1.875 21.0031 1.87573 21.7459 1.92298 22.3241C1.96933 22.8915 2.05574 23.2174 2.18154 23.4643C2.45119 23.9936 2.88145 24.4238 3.41065 24.6935C3.65755 24.8193 3.98351 24.9057 4.55085 24.952C5.12914 24.9993 5.87193 25 6.9375 25H14.9375C16.0031 25 16.7459 24.9993 17.3241 24.952C17.8915 24.9057 18.2175 24.8193 18.4643 24.6935C18.9936 24.4238 19.4238 23.9936 19.6935 23.4643C19.8193 23.2174 19.9057 22.8915 19.952 22.3241C19.9993 21.7459 20 21.0031 20 19.9375V6.9375C20 5.87193 19.9993 5.12914 19.952 4.55085C19.9057 3.98351 19.8193 3.65755 19.6935 3.41065C19.4238 2.88145 18.9936 2.45119 18.4643 2.18154C18.2175 2.05574 17.8915 1.96933 17.3241 1.92298C16.7459 1.87573 16.0031 1.875 14.9375 1.875H6.9375C5.87193 1.875 5.12914 1.87573 4.55085 1.92298ZM5 7.1875C5 6.66973 5.41973 6.25 5.9375 6.25H14.0625C14.5803 6.25 15 6.66973 15 7.1875C15 7.70527 14.5803 8.125 14.0625 8.125H5.9375C5.41973 8.125 5 7.70527 5 7.1875ZM5 12.1875C5 11.6697 5.41973 11.25 5.9375 11.25H10.3125C10.8303 11.25 11.25 11.6697 11.25 12.1875C11.25 12.7053 10.8303 13.125 10.3125 13.125H5.9375C5.41973 13.125 5 12.7053 5 12.1875ZM5 17.1875C5 16.6697 5.41973 16.25 5.9375 16.25H15.3125C15.8303 16.25 16.25 16.6697 16.25 17.1875C16.25 17.7053 15.8303 18.125 15.3125 18.125H5.9375C5.41973 18.125 5 17.7053 5 17.1875Z" fill="white" fill-opacity="0.3"/>
</svg>
