<svg width="30" height="30" viewBox="0 0 30 30" fill="none" xmlns="http://www.w3.org/2000/svg">
<path fill-rule="evenodd" clip-rule="evenodd" d="M10.482 2.8125L19.5169 2.8125C20.4582 2.81249 21.2194 2.81249 21.8392 2.86131C22.4789 2.9117 23.0425 3.01813 23.5722 3.27163C24.4172 3.67594 25.1216 4.32413 25.5947 5.13259C25.8913 5.63949 26.0442 6.19228 26.1475 6.82554C26.2477 7.43914 26.3109 8.1977 26.389 9.13576L27.2707 19.7158C27.3618 20.8081 27.435 21.6867 27.4343 22.399C27.4335 23.1305 27.3571 23.7773 27.0923 24.3815C26.6735 25.337 25.948 26.1256 25.0306 26.6222C24.4504 26.9363 23.8122 27.0662 23.0833 27.1276C22.3735 27.1875 21.4918 27.1875 20.3956 27.1875H9.60332C8.50718 27.1875 7.62549 27.1875 6.91567 27.1276C6.18677 27.0662 5.54856 26.9363 4.9684 26.6222C4.05097 26.1256 3.32543 25.337 2.90668 24.3815C2.64187 23.7773 2.56543 23.1305 2.5647 22.399C2.56399 21.6867 2.63722 20.808 2.72826 19.7157L3.60992 9.13577C3.68808 8.1977 3.75129 7.43914 3.85142 6.82554C3.95475 6.19228 4.10762 5.63949 4.40424 5.13259C4.87733 4.32413 5.58177 3.67594 6.42673 3.27163C6.95652 3.01813 7.52009 2.9117 8.15975 2.86131C8.77954 2.81248 9.54073 2.81249 10.482 2.8125ZM8.307 4.73052C7.78099 4.77195 7.47387 4.84917 7.23603 4.96298C6.72906 5.20556 6.30639 5.59448 6.02254 6.07955C5.88938 6.30712 5.78692 6.60676 5.70194 7.12751C5.61511 7.65964 5.55736 8.34445 5.47527 9.32958L4.60027 19.8296C4.50495 20.9735 4.43908 21.7732 4.4397 22.3972C4.44031 23.011 4.50752 23.3631 4.624 23.6289C4.87525 24.2022 5.31057 24.6753 5.86103 24.9733C6.11624 25.1115 6.46156 25.2077 7.07324 25.2593C7.69497 25.3117 8.49744 25.3125 9.64528 25.3125H20.3537C21.5015 25.3125 22.304 25.3117 22.9257 25.2593C23.5374 25.2077 23.8827 25.1115 24.1379 24.9733C24.6884 24.6753 25.1237 24.2022 25.375 23.6289C25.4914 23.3631 25.5587 23.011 25.5593 22.3972C25.5599 21.7732 25.494 20.9734 25.3987 19.8296L24.5237 9.32958C24.4416 8.34445 24.3839 7.65964 24.297 7.12752C24.2121 6.60677 24.1096 6.30712 23.9764 6.07955C23.6926 5.59448 23.2699 5.20557 22.7629 4.96298C22.5251 4.84918 22.218 4.77196 21.692 4.73052C21.1545 4.68818 20.4672 4.6875 19.4787 4.6875L10.5203 4.6875C9.53173 4.6875 8.8445 4.68818 8.307 4.73052ZM9.99949 9.0625C10.5173 9.0625 10.937 9.48223 10.937 10C10.937 11.0774 11.365 12.1108 12.1269 12.8726C12.8887 13.6345 13.922 14.0625 14.9995 14.0625C16.0769 14.0625 17.1102 13.6345 17.8721 12.8726C18.634 12.1108 19.062 11.0774 19.062 10C19.062 9.48223 19.4817 9.0625 19.9995 9.0625C20.5173 9.0625 20.937 9.48223 20.937 10C20.937 11.5747 20.3114 13.0849 19.1979 14.1984C18.0844 15.3119 16.5742 15.9375 14.9995 15.9375C13.4248 15.9375 11.9145 15.3119 10.801 14.1984C9.68754 13.0849 9.06199 11.5747 9.06199 10C9.06199 9.48223 9.48172 9.0625 9.99949 9.0625Z" fill="white" fill-opacity="0.3"/>
</svg>
