<svg width="22" height="19" viewBox="0 0 22 19" fill="none" xmlns="http://www.w3.org/2000/svg">
<path fill-rule="evenodd" clip-rule="evenodd" d="M5.34999 12.9826H16.05C19.0047 12.9826 21.4 15.0585 21.4 17.6193C21.4 18.1314 20.9209 18.5466 20.33 18.5466C19.7812 18.5466 19.329 18.1886 19.2672 17.7274L19.2545 17.4558C19.1605 16.0496 17.8612 14.9235 16.2386 14.842L16.05 14.8373H5.34999C3.57716 14.8373 2.14 16.0828 2.14 17.6193C2.14 18.1314 1.66094 18.5466 1.07 18.5466C0.479054 18.5466 0 18.1314 0 17.6193C0 15.1259 2.27086 13.0922 5.11792 12.9869L5.34999 12.9826H16.05H5.34999ZM10.7 0C14.2456 0 17.12 2.49108 17.12 5.56399C17.12 8.63689 14.2456 11.128 10.7 11.128C7.15432 11.128 4.27999 8.63689 4.27999 5.56399C4.27999 2.49108 7.15432 0 10.7 0ZM10.7 1.85466C8.3362 1.85466 6.41999 3.51538 6.41999 5.56399C6.41999 7.61259 8.3362 9.27331 10.7 9.27331C13.0638 9.27331 14.98 7.61259 14.98 5.56399C14.98 3.51538 13.0638 1.85466 10.7 1.85466Z" fill="white"/>
</svg>
