<svg width="26" height="21" viewBox="0 0 26 21" fill="none" xmlns="http://www.w3.org/2000/svg">
<path fill-rule="evenodd" clip-rule="evenodd" d="M18.1848 0C22.292 0 25.6328 2.89543 25.6328 6.45605V14.1811C25.6328 17.7407 22.292 20.6372 18.1848 20.6372H7.44929C3.34212 20.6372 0 17.7407 0 14.1811V6.45605C0 2.89543 3.34212 0 7.44929 0H18.1848ZM18.1848 1.61455H7.44929C4.36922 1.61455 1.86294 3.78666 1.86294 6.45605V14.1811C1.86294 16.8505 4.36922 19.0226 7.44929 19.0226H18.1848C21.2649 19.0226 23.7699 16.8505 23.7699 14.1811V13.8797L19.674 13.8804C17.318 13.8804 15.4004 12.2196 15.3992 10.1788C15.3992 8.13583 17.3168 6.47391 19.674 6.47284L23.7699 6.47219V6.45605C23.7699 3.78666 21.2649 1.61455 18.1848 1.61455ZM23.7699 8.08674L19.674 8.08739C18.3439 8.08846 17.2621 9.02598 17.2621 10.1777C17.2621 11.3283 18.3451 12.2658 19.674 12.2658L23.7699 12.2652V8.08674ZM20.2424 9.30368C20.7565 9.30368 21.1738 9.66534 21.1738 10.111C21.1738 10.5566 20.7565 10.9182 20.2424 10.9182H19.8549C19.3407 10.9182 18.9234 10.5566 18.9234 10.111C18.9234 9.66534 19.3407 9.30368 19.8549 9.30368H20.2424ZM13.2704 4.88466C13.7845 4.88466 14.2018 5.24632 14.2018 5.69193C14.2018 6.13755 13.7845 6.49921 13.2704 6.49921H6.56501C6.05084 6.49921 5.63354 6.13755 5.63354 5.69193C5.63354 5.24632 6.05084 4.88466 6.56501 4.88466H13.2704Z" fill="white"/>
</svg>
