<svg width="22" height="16" viewBox="0 0 22 16" fill="none" xmlns="http://www.w3.org/2000/svg">
<path fill-rule="evenodd" clip-rule="evenodd" d="M3.91957 4.05387e-07L17.5804 1.65708e-06C18.1146 -8.95254e-06 18.5604 -1.77138e-05 18.9247 0.0297413C19.3046 0.0607792 19.6612 0.12789 19.9985 0.299734C20.5159 0.563386 20.9366 0.984082 21.2003 1.50153C21.3721 1.83879 21.4392 2.19545 21.4703 2.57533C21.5 2.93956 21.5 3.3854 21.5 3.91955V11.5805C21.5 12.1146 21.5 12.5604 21.4703 12.9247C21.4392 13.3046 21.3721 13.6612 21.2003 13.9985C20.9366 14.5159 20.5159 14.9366 19.9985 15.2003C19.6612 15.3721 19.3046 15.4392 18.9247 15.4703C18.5604 15.5 18.1146 15.5 17.5805 15.5L3.91955 15.5C3.3854 15.5 2.93956 15.5 2.57533 15.4703C2.19545 15.4392 1.83879 15.3721 1.50153 15.2003C0.984081 14.9366 0.563384 14.5159 0.299733 13.9985C0.127889 13.6612 0.0607777 13.3046 0.0297399 12.9247C-1.90884e-05 12.5604 -1.02672e-05 12.1146 4.02009e-07 11.5804L5.80823e-07 3.91957C-1.00884e-05 3.38541 -1.89096e-05 2.93956 0.0297401 2.57533C0.060778 2.19545 0.127889 1.83879 0.299733 1.50153C0.563385 0.984081 0.984082 0.563384 1.50153 0.299733C1.83879 0.127889 2.19545 0.0607777 2.57533 0.0297398C2.93957 -1.92039e-05 3.38541 -1.03234e-05 3.91957 4.05387e-07ZM2.69748 1.52476C2.41036 1.54822 2.27307 1.5901 2.18251 1.63624C1.94731 1.75608 1.75608 1.94731 1.63624 2.18251C1.5901 2.27307 1.54822 2.41035 1.52476 2.69748C1.50058 2.99336 1.5 3.37757 1.5 3.95L1.5 11.55C1.5 12.1224 1.50058 12.5066 1.52476 12.8025C1.54822 13.0896 1.5901 13.2269 1.63624 13.3175C1.75608 13.5527 1.94731 13.7439 2.18251 13.8638C2.27307 13.9099 2.41035 13.9518 2.69748 13.9752C2.99336 13.9994 3.37757 14 3.95 14L17.55 14C18.1224 14 18.5066 13.9994 18.8025 13.9752C19.0896 13.9518 19.2269 13.9099 19.3175 13.8638C19.5527 13.7439 19.7439 13.5527 19.8638 13.3175C19.9099 13.2269 19.9518 13.0896 19.9752 12.8025C19.9994 12.5066 20 12.1224 20 11.55V3.95C20 3.37757 19.9994 2.99336 19.9752 2.69748C19.9518 2.41036 19.9099 2.27307 19.8638 2.18251C19.7439 1.94731 19.5527 1.75609 19.3175 1.63624C19.2269 1.5901 19.0896 1.54822 18.8025 1.52476C18.5066 1.50059 18.1224 1.5 17.55 1.5L3.95 1.5C3.37757 1.5 2.99336 1.50058 2.69748 1.52476ZM10.75 3C11.1642 3 11.5 3.33579 11.5 3.75V4H12.75C13.1642 4 13.5 4.33579 13.5 4.75C13.5 5.16421 13.1642 5.5 12.75 5.5H10.25C9.83579 5.5 9.5 5.83579 9.5 6.25C9.5 6.66421 9.83579 7 10.25 7H11.25C12.4926 7 13.5 8.00736 13.5 9.25C13.5 10.4081 12.625 11.3619 11.5 11.4863V11.75C11.5 12.1642 11.1642 12.5 10.75 12.5C10.3358 12.5 10 12.1642 10 11.75V11.5H8.75C8.33579 11.5 8 11.1642 8 10.75C8 10.3358 8.33579 10 8.75 10H11.25C11.6642 10 12 9.66422 12 9.25C12 8.83579 11.6642 8.5 11.25 8.5H10.25C9.00736 8.5 8 7.49264 8 6.25C8 5.09186 8.87501 4.13809 10 4.01373V3.75C10 3.33579 10.3358 3 10.75 3ZM3.5 7.75C3.5 7.05964 4.05964 6.5 4.75 6.5C5.44036 6.5 6 7.05964 6 7.75C6 8.44036 5.44036 9 4.75 9C4.05964 9 3.5 8.44036 3.5 7.75ZM15.5 7.75C15.5 7.05964 16.0596 6.5 16.75 6.5C17.4404 6.5 18 7.05964 18 7.75C18 8.44036 17.4404 9 16.75 9C16.0596 9 15.5 8.44036 15.5 7.75Z" fill="white"/>
</svg>
