<svg width="30" height="42" viewBox="0 0 30 42" fill="none" xmlns="http://www.w3.org/2000/svg">
<g filter="url(#filter0_d_29_2096)">
<path d="M10.2163 10.8988C10.2163 10.8988 12.2163 13.5655 12.2163 18.8988C12.2163 24.2322 10.2163 26.8988 10.2163 26.8988" stroke="white" stroke-width="3"/>
<path d="M5.21631 14.8988C5.21631 14.8988 6.21631 16.2322 6.21631 18.8988C6.21631 21.5655 5.21631 22.8988 5.21631 22.8988" stroke="white" stroke-width="3"/>
<path d="M15.2163 6.89885C15.2163 6.89885 18.2163 10.8988 18.2163 18.8988C18.2163 26.8989 15.2163 30.8989 15.2163 30.8989" stroke="white" stroke-width="3"/>
<path d="M20.2163 2.89885C20.2163 2.89885 24.2163 8.23218 24.2163 18.8989C24.2163 29.5655 20.2163 34.8989 20.2163 34.8989" stroke="white" stroke-width="3"/>
</g>
<defs>
<filter id="filter0_d_29_2096" x="0" y="0" width="29.7163" height="41.7977" filterUnits="userSpaceOnUse" color-interpolation-filters="sRGB">
<feFlood flood-opacity="0" result="BackgroundImageFix"/>
<feColorMatrix in="SourceAlpha" type="matrix" values="0 0 0 0 0 0 0 0 0 0 0 0 0 0 0 0 0 0 127 0" result="hardAlpha"/>
<feOffset dy="2"/>
<feGaussianBlur stdDeviation="2"/>
<feComposite in2="hardAlpha" operator="out"/>
<feColorMatrix type="matrix" values="0 0 0 0 0 0 0 0 0 0 0 0 0 0 0 0 0 0 0.25 0"/>
<feBlend mode="normal" in2="BackgroundImageFix" result="effect1_dropShadow_29_2096"/>
<feBlend mode="normal" in="SourceGraphic" in2="effect1_dropShadow_29_2096" result="shape"/>
</filter>
</defs>
</svg>
